<?xml version="1.0" encoding="UTF-8" standalone="no"?>
<!-- Created with Inkscape (http://www.inkscape.org/) -->

<svg
   width="666.33099"
   height="757.4762"
   viewBox="0 0 666.33099 757.4762"
   version="1.1"
   id="svg1"
   xmlns="http://www.w3.org/2000/svg"
   xmlns:svg="http://www.w3.org/2000/svg">
  <defs
     id="defs1" />
  <g
     id="layer1"
     transform="translate(131.13487,99.350914)">
    <path
       style="opacity:1;fill:#000000;stroke:#ff0000;stroke-width:0;stroke-dasharray:1, 2"
       id="path5"
       d="m 380.25221,-99.350916 c -13.71545,14.3109 -26.26142,30.471419 -38.58848,45.748538 -41.26416,51.1393031 -55.69303,68.8712 -95.89725,126.585411 -20.94375,30.065287 -40.825,60.856937 -61.2375,91.285407 C 99.863344,295.6242 19.080807,429.45063 -66.516307,560.21053 c -8.996795,13.74369 -18.170994,27.37042 -27.256491,41.05564 -26.122532,37.111 -13.525252,20.32742 -37.362072,50.67046 0,0 10.42726,6.1887 10.42726,6.1887 v 0 c 22.427751,-31.28482 10.57191,-14.02374 35.162603,-52.05904 C 4.9260604,459.05568 91.696862,309.7216 186.79438,165.59966 c 21.00739,-30.07087 41.34297,-60.62241 63.02216,-90.212602 36.92585,-50.400534 60.57021,-79.014031 100.75429,-123.606451 11.39606,-12.646242 27.75518,-30.565648 42.06341,-42.730438 z" />
    <path
       style="opacity:1;fill:#000000;stroke:#ff0000;stroke-width:0;stroke-dasharray:1, 2"
       id="path6"
       d="m 350.66297,115.91995 c -9.07108,3.75375 -16.79045,6.53602 -25.09139,12.76161 -29.99637,22.49685 -53.49185,54.006 -69.40319,87.74067 -6.21517,13.17718 -10.17382,27.30492 -15.26074,40.95738 -1.43421,13.60657 -5.29721,27.17396 -4.30265,40.81972 2.05018,28.12907 13.94682,51.93861 34.4949,71.15583 23.66963,22.13658 60.86513,37.35975 90.95828,45.5868 16.5008,4.51108 33.77293,5.46755 50.6594,8.20133 44.41425,2.53674 47.02638,3.76036 89.45195,2.34428 11.02449,-0.36797 22.01771,-1.38549 33.02657,-2.07824 0,0 -8.04319,-5.75182 -8.04319,-5.75182 v 0 c -10.63756,0.93805 -21.24888,2.24762 -31.91268,2.81414 -41.44792,2.20195 -44.43891,0.81586 -88.00599,-1.45034 -28.91194,-4.82232 -63.88113,-8.13077 -91.10012,-21.41508 -39.22464,-19.14369 -68.21863,-50.36355 -71.96892,-95.45974 -1.13289,-13.62265 2.55496,-27.2197 3.83244,-40.82956 5.0764,-13.60333 8.92205,-27.73174 15.22918,-40.80998 16.325,-33.85091 40.79627,-64.5641 72.45642,-85.18899 8.97756,-5.84839 17.2397,-8.13083 26.88501,-11.30169 z" />
  </g>
</svg>
